<svg width="30" height="30" viewBox="0 0 30 30" fill="none" xmlns="http://www.w3.org/2000/svg">
<path d="M30 14.9983C30.0022 16.5156 29.7348 18.0184 29.2132 19.4198C28.6916 20.8212 27.9262 22.0933 26.9612 23.1627C26.7681 23.3748 26.5081 23.4939 26.2371 23.4944C25.9624 23.4932 25.6986 23.3744 25.5 23.1627C25.3065 22.9464 25.1979 22.6533 25.1979 22.3477C25.1979 22.0421 25.3065 21.749 25.5 21.5327C26.2702 20.6752 26.8813 19.6567 27.2982 18.5354C27.7152 17.4142 27.9298 16.2122 27.9298 14.9983C27.9298 13.7844 27.7152 12.5824 27.2982 11.4612C26.8813 10.3399 26.2702 9.32138 25.5 8.46389C25.3217 8.24437 25.2259 7.95678 25.2324 7.66064C25.239 7.36451 25.3473 7.08252 25.5351 6.87306C25.7229 6.6636 25.9757 6.54271 26.2411 6.53542C26.5066 6.52813 26.7644 6.635 26.9612 6.83389C27.9262 7.90328 28.6916 9.17542 29.2132 10.5768C29.7348 11.9781 30.0022 13.4809 30 14.9983ZM18.6207 1.15055V28.846C18.6208 29.0626 18.5663 29.2749 18.4634 29.4585C18.3605 29.6422 18.2134 29.7898 18.0388 29.8846C17.897 29.9586 17.7427 29.9979 17.5862 30C17.3566 29.9979 17.134 29.9118 16.9526 29.7548L7.92672 21.9222H2.06896C1.52024 21.9222 0.993992 21.679 0.605986 21.2462C0.217979 20.8133 0 20.2263 0 19.6142V10.3824C0 9.77027 0.217979 9.18323 0.605986 8.75041C0.993992 8.31758 1.52024 8.07442 2.06896 8.07442H7.92672L16.9526 0.241797C17.1053 0.109767 17.2882 0.0281005 17.4804 0.00605274C17.6726 -0.015995 17.8665 0.0224568 18.0402 0.117051C18.2138 0.211646 18.3602 0.358601 18.4628 0.541265C18.5654 0.723928 18.6201 0.934997 18.6207 1.15055ZM2.06896 19.6142H7.24138V10.3824H2.06896V19.6142ZM16.5517 3.51621L9.31034 9.79096V20.2056L16.5517 26.4804V3.51621ZM21.8405 10.9161C21.647 11.1324 21.5384 11.4255 21.5384 11.7311C21.5384 12.0367 21.647 12.3298 21.8405 12.5461C22.1314 12.8667 22.3623 13.2486 22.5199 13.6695C22.6776 14.0905 22.7587 14.5421 22.7587 14.9983C22.7587 15.4545 22.6776 15.9061 22.5199 16.3271C22.3623 16.748 22.1314 17.1298 21.8405 17.4505C21.647 17.6668 21.5384 17.9599 21.5384 18.2655C21.5384 18.5711 21.647 18.8642 21.8405 19.0805C22.0391 19.2922 22.3029 19.411 22.5776 19.4123C22.8518 19.4081 23.1147 19.2898 23.3146 19.0805C24.2827 17.9964 24.8263 16.5285 24.8263 14.9983C24.8263 13.4681 24.2827 12.0002 23.3146 10.9161C23.1185 10.6994 22.8536 10.5778 22.5776 10.5778C22.3015 10.5778 22.0366 10.6994 21.8405 10.9161Z" fill="#3063C5"/>
</svg>
