<svg width="44" height="42" viewBox="0 0 44 42" fill="none" xmlns="http://www.w3.org/2000/svg">
<path d="M16.5 30.45L31.9 21L16.5 11.55V30.45ZM22 42C18.9567 42 16.0967 41.4484 13.42 40.3452C10.7433 39.2434 8.415 37.7475 6.435 35.8575C4.455 33.9675 2.88787 31.745 1.7336 29.19C0.577867 26.635 0 23.905 0 21C0 18.095 0.577867 15.365 1.7336 12.81C2.88787 10.255 4.455 8.0325 6.435 6.1425C8.415 4.2525 10.7433 2.7559 13.42 1.6527C16.0967 0.5509 18.9567 0 22 0C25.0433 0 27.9033 0.5509 30.58 1.6527C33.2567 2.7559 35.585 4.2525 37.565 6.1425C39.545 8.0325 41.1121 10.255 42.2664 12.81C43.4221 15.365 44 18.095 44 21C44 23.905 43.4221 26.635 42.2664 29.19C41.1121 31.745 39.545 33.9675 37.565 35.8575C35.585 37.7475 33.2567 39.2434 30.58 40.3452C27.9033 41.4484 25.0433 42 22 42ZM22 37.8C26.9133 37.8 31.075 36.1725 34.485 32.9175C37.895 29.6625 39.6 25.69 39.6 21C39.6 16.31 37.895 12.3375 34.485 9.0825C31.075 5.8275 26.9133 4.2 22 4.2C17.0867 4.2 12.925 5.8275 9.515 9.0825C6.105 12.3375 4.4 16.31 4.4 21C4.4 25.69 6.105 29.6625 9.515 32.9175C12.925 36.1725 17.0867 37.8 22 37.8Z" fill="#3063C5"/>
</svg>
