<svg width="162" height="172" viewBox="0 0 162 172" fill="none" xmlns="http://www.w3.org/2000/svg">
<path d="M129.224 88.9731C129.224 116.492 101.938 140.031 66.6118 140.031C31.2854 140.031 4 116.492 4 88.9731C4 61.454 31.2854 37.9155 66.6118 37.9155C101.938 37.9155 129.224 61.454 129.224 88.9731Z" fill="white" stroke="#2D91EE" stroke-width="8"/>
<line y1="84.9731" x2="21.0493" y2="84.9731" stroke="#2D91EE" stroke-width="8"/>
<path d="M119.365 88.7529C119.365 107.15 101.027 123.293 76.7368 123.293C52.447 123.293 34.1085 107.15 34.1085 88.7529C34.1085 70.356 52.447 54.2125 76.7368 54.2125C101.027 54.2125 119.365 70.356 119.365 88.7529Z" fill="white" stroke="#2D91EE" stroke-width="8"/>
<rect x="72.2073" width="89.7928" height="172" fill="white"/>
<line x1="51.158" y1="84.7529" x2="72.2073" y2="84.7529" stroke="#2D91EE" stroke-width="8"/>
<line y1="-4" x2="24.8914" y2="-4" transform="matrix(0.0214085 0.999771 -0.999893 0.0146275 50.8915 73.557)" stroke="#2D91EE" stroke-width="8"/>
<line y1="-4" x2="24.8914" y2="-4" transform="matrix(0.0214085 0.999771 -0.999893 0.0146275 65.2797 73.557)" stroke="#2D91EE" stroke-width="8"/>
<path d="M113.237 87.5416C113.237 92.2551 108.319 97.306 100.584 97.306C92.849 97.306 87.9309 92.2551 87.9309 87.5416C87.9309 82.8282 92.849 77.7772 100.584 77.7772C108.319 77.7772 113.237 82.8282 113.237 87.5416Z" fill="white" stroke="#2D91EE" stroke-width="8"/>
</svg>
